#!OML:ASF F:\VICON\USERDATA\INSTALL\rory3\rory3.ASF
:FULLY-SPECIFIED
:DEGREES
267
root 1.2047 17.9921 17.7586 -4.19751 -3.14321 -1.79212
lowerback 10.9216 2.09462 2.05039
upperback -0.214128 3.0903 0.621751
thorax -6.28009 1.46007 -0.998124
lowerneck -16.9279 -3.62638 -1.4861
upperneck 21.5368 -5.1769 2.1025
head 9.71591 -2.28164 0.290605
rclavicle -1.24882e-014 1.03865e-014
rhumerus -26.8745 -19.6496 -78.4225
rradius 29.4825
rwrist 3.08395
rhand -18.13 22.9477
rfingers 7.12502
rthumb 8.14485 -6.87528
lclavicle -1.24882e-014 1.03865e-014
lhumerus -38.2167 9.79312 78.628
lradius 18.2912
lwrist 1.05225
lhand -31.7902 17.8249
lfingers 7.12502
lthumb -5.04614 47.7448
rfemur -10.5025 -2.0942 23.2033
rtibia 71.3015
rfoot 8.66009 -3.11056
rtoes 19.9202
lfemur -13.0387 -4.70904 -22.2138
ltibia 29.125
lfoot -8.83521 -1.3361
ltoes 0.756553
268
root 1.20967 17.9957 17.9209 -4.15228 -3.02227 -1.80292
lowerback 10.9714 1.9732 1.95116
upperback -0.270412 2.92295 0.688841
thorax -6.38112 1.38046 -0.849171
lowerneck -16.6764 -3.61501 -1.44241
upperneck 21.4176 -5.16143 2.06002
head 9.62411 -2.2803 0.276308
rclavicle 4.0251e-015 -8.99501e-015
rhumerus -27.1341 -19.9681 -78.2264
rradius 29.1227
rwrist 3.57852
rhand -18.0564 23.362
rfingers 7.12502
rthumb 8.21591 -6.45824
lclavicle 4.0251e-015 -8.99501e-015
lhumerus -37.9866 9.39997 78.9117
lradius 18.4316
lwrist 1.53237
lhand -32.348 16.3174
lfingers 7.12502
lthumb -5.5847 46.2238
rfemur -12.0743 -2.44771 23.1647
rtibia 72.3087
rfoot 7.21927 -3.4371
rtoes 18.7
lfemur -12.529 -4.84552 -22.3055
ltibia 29.1121
lfoot -9.2111 -1.2378
ltoes 1.08111
269
root 1.2246 17.9948 18.0931 -4.17625 -2.76005 -1.40586
lowerback 10.8214 1.81577 1.63665
upperback -0.237345 2.66251 0.588857
thorax -6.27706 1.26305 -0.729589
lowerneck -16.6276 -3.62022 -1.39536
upperneck 21.4963 -5.16675 1.98427
head 9.63922 -2.28745 0.241954
rclavicle 4.83442e-015 -7.40473e-015
rhumerus -27.3367 -20.3892 -78.0839
rradius 28.7889
rwrist 4.13662
rhand -18.1878 23.3521
rfingers 7.12502
rthumb 8.08907 -6.4731
lclavicle 4.83442e-015 -7.40473e-015
lhumerus -37.7026 9.03566 79.1779
lradius 18.6703
lwrist 1.91463
lhand -32.807 15.7427
lfingers 7.12502
lthumb -6.0279 45.6369
rfemur -13.4138 -2.99659 22.5116
rtibia 73.1346
rfoot 5.91474 -3.55181
rtoes 17.5776
lfemur -11.821 -5.06876 -22.947
ltibia 29.0289
lfoot -9.60606 -1.04576
ltoes 1.068
270
root 1.23492 17.9976 18.2751 -4.32727 -2.54808 -1.01409
lowerback 10.7412 1.66365 1.23224
upperback -0.191855 2.40402 0.548314
thorax -6.20375 1.14951 -0.500538
lowerneck -16.3283 -3.53076 -1.54705
upperneck 21.4749 -5.02124 2.05724
head 9.57957 -2.22766 0.317022
rclavicle 3.46621e-015 -1.19271e-015
rhumerus -27.6742 -20.6443 -77.9177
rradius 28.691
rwrist 4.45684
rhand -18.3211 22.7933
rfingers 7.12502
rthumb 7.96045 -7.03676
lclavicle 3.46621e-015 -1.19271e-015
lhumerus -37.5492 7.87708 79.9012
lradius 19.075
lwrist 3.29471
lhand -32.7018 16.5639
lfingers 7.12502
lthumb -5.92633 46.461
rfemur -14.4912 -3.39212 21.9416
rtibia 73.7251
rfoot 4.62527 -3.46597
rtoes 15.3269
lfemur -10.8955 -5.23052 -23.5711
ltibia 28.9233
lfoot -10.1581 -0.724254
ltoes 0.941419
271
root 1.22769 17.9963 18.4424 -4.39869 -2.5449 -0.967346
lowerback 10.7394 1.62109 0.997068
upperback -0.131833 2.32146 0.621065
thorax -6.15293 1.1181 -0.278116
lowerneck -16.1035 -3.5031 -1.68867
upperneck 21.3718 -4.97278 2.17506
head 9.50786 -2.20695 0.392029
rclavicle 9.56224e-015 1.68967e-015
rhumerus -28.0915 -21.0446 -77.7008
rradius 28.7316
rwrist 4.59306
rhand -18.3012 23.2435
rfingers 7.12502
rthumb 7.97966 -6.58585
lclavicle 9.56224e-015 1.68967e-015
lhumerus -37.1188 6.26967 80.9499
lradius 19.7066
lwrist 5.52212
lhand -31.8779 19.1516
lfingers 7.12502
lthumb -5.13083 49.0695
rfemur -15.791 -3.33533 22.0143
rtibia 74.1685
rfoot 3.365 -3.68333
rtoes 14.6487
lfemur -10.2723 -5.07327 -23.6658
ltibia 28.864
lfoot -10.464 -0.679217
ltoes 1.04285
272
root 1.21664 17.9899 18.6034 -4.54096 -2.73836 -1.12787
lowerback 10.8978 1.63587 0.909741
upperback -0.0684121 2.33934 0.747864
thorax -6.18404 1.13126 -0.102976
lowerneck -16.1795 -3.48945 -1.51523
upperneck 21.4587 -4.95212 1.96937
head 9.5413 -2.20497 0.29333
rclavicle 5.08313e-015 1.23246e-014
rhumerus -28.4364 -21.3586 -77.5379
rradius 28.6199
rwrist 4.38436
rhand -18.193 23.6285
rfingers 7.12502
rthumb 8.08404 -6.19685
lclavicle 5.08313e-015 1.23246e-014
lhumerus -36.6407 5.72051 81.2123
lradius 20.1762
lwrist 5.67772
lhand -31.8441 21.0192
lfingers 7.12502
lthumb -5.09823 50.9379
rfemur -17.0529 -2.98004 22.375
rtibia 74.4141
rfoot 2.45372 -3.92815
rtoes 15.3998
lfemur -9.72112 -4.84529 -23.5141
ltibia 28.9527
lfoot -10.5022 -0.517783
ltoes 1.17243
273
root 1.21171 17.9854 18.7694 -4.64296 -2.81626 -1.143
lowerback 10.9372 1.56079 0.711405
upperback -0.0253949 2.22155 0.865528
thorax -6.17381 1.08149 0.150118
lowerneck -16.2343 -3.45253 -1.48473
upperneck 21.638 -4.87758 1.81876
head 9.60794 -2.18281 0.2438
rclavicle -2.33193e-015 -1.96797e-014
rhumerus -28.7089 -21.5398 -77.3645
rradius 28.4148
rwrist 4.37729
rhand -18.3129 23.2732
rfingers 7.12502
rthumb 7.96837 -6.55662
lclavicle -2.33193e-015 -1.96797e-014
lhumerus -36.1753 6.75035 80.4985
lradius 19.7183
lwrist 3.64965
lhand -31.6907 17.6666
lfingers 7.12502
lthumb -4.95005 47.5888
rfemur -18.2219 -2.89077 22.4636
rtibia 74.4473
rfoot 2.12577 -3.82509
rtoes 14.3108
lfemur -9.10322 -4.61112 -23.5983
ltibia 29.1551
lfoot -11.0406 -0.263939
ltoes 0.378365
274
root 1.20887 17.9798 18.9288 -4.63857 -2.63237 -1.15373
lowerback 10.9267 1.42126 0.60801
upperback 0.0154568 2.02499 0.912082
thorax -6.12998 0.989202 0.289438
lowerneck -16.2407 -3.44312 -1.53269
upperneck 21.7822 -4.87045 1.87517
head 9.66277 -2.17554 0.270943
rclavicle -1.28226e-014 3.97569e-015
rhumerus -28.9413 -21.9003 -77.2188
rradius 28.2726
rwrist 4.32163
rhand -18.248 23.135
rfingers 7.12502
rthumb 8.03095 -6.69247
lclavicle -1.28226e-014 3.97569e-015
lhumerus -35.5227 6.95192 80.2675
lradius 19.2579
lwrist 3.09987
lhand -30.0494 15.4338
lfingers 7.12502
lthumb -3.36518 45.387
rfemur -19.4416 -3.07863 22.5006
rtibia 74.2888
rfoot 0.492392 -3.46931
rtoes 13.831
lfemur -8.50214 -4.55723 -23.6919
ltibia 29.3144
lfoot -11.8194 -0.0274789
ltoes -0.305093
275
root 1.20792 17.9733 19.0912 -4.69852 -2.33249 -1.06263
lowerback 10.9875 1.21554 0.438782
upperback 0.0208701 1.73099 0.921647
thorax -6.16282 0.850069 0.440572
lowerneck -15.9643 -3.34619 -1.55532
upperneck 21.6959 -4.75791 1.98947
head 9.58243 -2.11608 0.334338
rclavicle -1.50799e-014 -4.37326e-015
rhumerus -29.2669 -21.9561 -77.1221
rradius 28.2185
rwrist 3.7377
rhand -17.9254 23.4532
rfingers 7.12502
rthumb 8.34232 -6.36204
lclavicle -1.50799e-014 -4.37326e-015
lhumerus -35.3212 5.77449 80.7377
lradius 19.9948
lwrist 4.11989
lhand -28.3838 17.8616
lfingers 7.12502
lthumb -1.75663 47.8341
rfemur -20.5184 -3.27902 22.4132
rtibia 73.9319
rfoot -0.948359 -3.12264
rtoes 12.9769
lfemur -7.87257 -4.60243 -23.9161
ltibia 29.4836
lfoot -12.5315 0.044901
ltoes 0.702375
276
root 1.20915 17.9609 19.2622 -4.79151 -1.98348 -0.600259
lowerback 11.0464 1.06671 -0.0426093
upperback -0.0168516 1.46619 0.827006
thorax -6.24363 0.733328 0.653808
lowerneck -15.8639 -3.34404 -1.64005
upperneck 21.8282 -4.75592 2.05942
head 9.6144 -2.11409 0.3736
rclavicle -4.23835e-015 2.78299e-015
rhumerus -29.6635 -22.1486 -76.8876
rradius 27.9071
rwrist 3.58072
rhand -17.9472 23.5983
rfingers 7.12502
rthumb 8.32126 -6.21776
lclavicle -4.23835e-015 2.78299e-015
lhumerus -35.3307 4.96558 80.9925
lradius 20.7742
lwrist 4.59583
lhand -27.8932 19.2173
lfingers 7.12502
lthumb -1.28274 49.1932
rfemur -21.4705 -3.55241 21.8432
rtibia 73.423
rfoot -2.4311 -2.76259
rtoes 12.4721
lfemur -7.18703 -4.63416 -24.5726
ltibia 29.6232
lfoot -13.1708 0.158473
ltoes 0.820335
277
root 1.20144 17.9481 19.4159 -4.66914 -1.86585 -0.727965
lowerback 11.1652 0.982186 -0.0530502
upperback -0.0996131 1.35996 0.924082
thorax -6.39953 0.68325 0.776422
lowerneck -16.1987 -3.42094 -1.90935
upperneck 22.2679 -4.85314 2.26248
head 9.84786 -2.15028 0.467453
rclavicle -4.85664e-015 -7.7526e-015
rhumerus -29.9798 -22.6998 -76.6035
rradius 27.6612
rwrist 3.86551
rhand -17.9102 23.4327
rfingers 7.12502
rthumb 8.35699 -6.38201
lclavicle -4.85664e-015 -7.7526e-015
lhumerus -34.8515 4.30089 81.214
lradius 20.7982
lwrist 5.20874
lhand -28.324 18.3463
lfingers 7.12502
lthumb -1.69879 48.3193
rfemur -22.7791 -3.49982 22.1338
rtibia 72.742
rfoot -3.68746 -2.72942
rtoes 11.0587
lfemur -6.78396 -4.68944 -24.4744
ltibia 29.6152
lfoot -13.616 0.351967
ltoes -0.185838
278
root 1.19209 17.943 19.5649 -4.52374 -1.69794 -0.961827
lowerback 11.2546 0.868121 0.0107233
upperback -0.113927 1.22411 1.02986
thorax -6.46409 0.616413 0.872865
lowerneck -16.3572 -3.40695 -1.92183
upperneck 22.2951 -4.85562 2.36797
head 9.89085 -2.13817 0.50311
rclavicle 1.9802e-014 -1.59028e-015
rhumerus -30.3326 -23.0494 -76.4773
rradius 27.7825
rwrist 3.95234
rhand -17.9329 23.4278
rfingers 7.12502
rthumb 8.33514 -6.38774
lclavicle 1.9802e-014 -1.59028e-015
lhumerus -33.9831 3.63028 81.3542
lradius 20.5304
lwrist 5.79483
lhand -28.6644 17.4087
lfingers 7.12502
lthumb -2.02759 47.3788
rfemur -24.0167 -3.37305 22.5647
rtibia 71.8336
rfoot -4.81333 -2.928
rtoes 10.1253
lfemur -6.40696 -4.7735 -24.2269
ltibia 29.5712
lfoot -14.0901 0.487149
ltoes -0.73699
279
root 1.18975 17.9365 19.7286 -4.55872 -1.27364 -0.512466
lowerback 11.2582 0.695819 -0.539945
upperback 0.000863401 0.91779 0.97278
thorax -6.34716 0.48234 1.17503
lowerneck -16.3081 -3.34751 -1.79941
upperneck 21.961 -4.76278 2.2414
head 9.75393 -2.10368 0.453821
rclavicle 1.58003e-014 1.09332e-014
rhumerus -30.4926 -23.0998 -76.4409
rradius 27.7867
rwrist 3.85239
rhand -18.1093 23.419
rfingers 7.12502
rthumb 8.16482 -6.4032
lclavicle 1.58003e-014 1.09332e-014
lhumerus -33.2124 3.3523 81.4219
lradius 20.5558
lwrist 6.32713
lhand -28.9305 16.834
lfingers 7.12502
lthumb -2.28463 46.8015
rfemur -24.8591 -3.67719 22.0807
rtibia 70.8242
rfoot -6.24689 -3.00529
rtoes 8.28092
lfemur -5.71834 -4.89598 -24.8129
ltibia 29.5176
lfoot -14.6766 0.561223
ltoes -1.09558
280
root 1.18202 17.9215 19.8989 -4.79313 -1.0388 -0.451482
lowerback 11.3613 0.582004 -0.735553
upperback 0.229526 0.742772 1.03
thorax -6.1621 0.401461 1.37446
lowerneck -16.4577 -3.34694 -1.64692
upperneck 21.7655 -4.72419 1.95796
head 9.69997 -2.10624 0.334106
rclavicle -1.47256e-014 -1.0138e-014
rhumerus -30.5165 -23.2387 -76.3707
rradius 27.6702
rwrist 3.76911
rhand -18.0983 23.3069
rfingers 7.12502
rthumb 8.17544 -6.51491
lclavicle -1.47256e-014 -1.0138e-014
lhumerus -32.4845 3.07531 81.5073
lradius 20.9908
lwrist 6.85361
lhand -28.6841 18.4284
lfingers 7.12502
lthumb -2.04662 48.3983
rfemur -25.3553 -3.83201 22.0629
rtibia 69.6185
rfoot -7.43739 -3.20784
rtoes 6.9539
lfemur -4.77023 -4.78111 -24.9423
ltibia 29.4229
lfoot -15.1989 0.473905
ltoes -0.876891
281
root 1.17468 17.9035 20.066 -4.90873 -0.708021 -0.21232
lowerback 11.3727 0.480346 -1.02154
upperback 0.335703 0.565705 0.966376
thorax -6.05307 0.32074 1.49837
lowerneck -16.5922 -3.3782 -1.57505
upperneck 21.8449 -4.77448 1.90126
head 9.75071 -2.12796 0.293037
rclavicle -2.30777e-015 -1.98785e-016
rhumerus -30.7805 -23.5112 -76.2194
rradius 27.5268
rwrist 3.75249
rhand -17.9896 23.4241
rfingers 7.12502
rthumb 8.28038 -6.39361
lclavicle -2.30777e-015 -1.98785e-016
lhumerus -31.8769 2.54323 81.4838
lradius 21.508
lwrist 6.79936
lhand -27.5731 22.3484
lfingers 7.12502
lthumb -0.973615 52.3259
rfemur -26.0027 -4.03206 21.8114
rtibia 68.2601
rfoot -8.37435 -3.48872
rtoes 5.52184
lfemur -3.94906 -4.72498 -25.279
ltibia 29.2796
lfoot -15.6263 0.507241
ltoes -1.31471
